# xmcd CD database file
#
# Track frame offsets:
#	150
#	16165
#	30060
#	42190
#	59380
#	80280
#	97025
#	111462
#	125660
#	137367
#	158940
#	172542
#	185975
#	198947
#	209010
#	220587
#	237640
#	255262
#
# Disc length: 3649 seconds
#
# Revision: 0
# Processed by: cddbd v1.5.1PL0 Copyright (c) Steve Scherf et al.
# Submitted via: CDex 1.51
#
DISCID=f00e3f12
DTITLE=Das grosse Country-Archiv - Deutsche Country- unt Truckersongs CD 1
DYEAR=1900
DGENRE=Country
TTITLE0=Ich möcht' so gern Dave Dudley hör'n - TRUCK STOP
TTITLE1=Das sind so viele Fragen - JONNY HILL
TTITLE2=Hallo guten Morgen Deutschland - TOM ASTOR
TTITLE3=Du bist das Salz in meiner Suppe - LINDA FELLER
TTITLE4=Er ist ein Kerl - Der 30 Tonnen Diesel - GUNTER GABRIEL
TTITLE5=Ich möcht so gerne mal nach Nashville - WESTERN UNION
TTITLE6=Western Willy - JOE HODGKINS BOSS BAND
TTITLE7=It's Country Time In Germany - HANNA and DAANA
TTITLE8=Kättschen Quetschen - GREYHOUNDS
TTITLE9=Wenn ich nur ein Trucker wär - GUNTER GABRIEL and LINDA FELLER
TTITLE10=Hallo Nachbar, guten Morgen - FRANK BAUM and COUNTRY GREEN
TTITLE11=Lass mich damit bloss in Ruhe - DAGMAR
TTITLE12=Verliebt in Country - MIKE HERMANN and BOOZE COMPANY
TTITLE13=Ich tanz' im Regen - GUDRUN LANGE and KACTUS
TTITLE14=Lass die Mädels wissen - TRUCK STOP
TTITLE15=Rosen für Mama - JONNY HILL
TTITLE16=Es fällt mir schwer dir zu glauben - LINDA FELLER
TTITLE17=Wieder unterwegs - WESTERN UNION
EXTD=
EXTT0=
EXTT1=
EXTT2=
EXTT3=
EXTT4=
EXTT5=
EXTT6=
EXTT7=
EXTT8=
EXTT9=
EXTT10=
EXTT11=
EXTT12=
EXTT13=
EXTT14=
EXTT15=
EXTT16=
EXTT17=
PLAYORDER=
